<?xml version="1.0" encoding="UTF-8" standalone="no"?>
<svg
   xmlns:dc="http://purl.org/dc/elements/1.1/"
   xmlns:cc="http://creativecommons.org/ns#"
   xmlns:rdf="http://www.w3.org/1999/02/22-rdf-syntax-ns#"
   xmlns:svg="http://www.w3.org/2000/svg"
   xmlns="http://www.w3.org/2000/svg"
   viewBox="0 0 480 480"
   height="480"
   width="480"
   xml:space="preserve"
   id="svg2"
   version="1.1"><metadata
     id="metadata8"><rdf:RDF><cc:Work
         rdf:about=""><dc:format>image/svg+xml</dc:format><dc:type
           rdf:resource="http://purl.org/dc/dcmitype/StillImage" /></cc:Work></rdf:RDF></metadata><defs
     id="defs6" /><g
     transform="matrix(1.3333333,0,0,-1.3333333,0,480)"
     id="g10"><g
       transform="scale(0.1)"
       id="g12"><path
         id="path14"
         style="fill:#ffffff;fill-opacity:1;fill-rule:evenodd;stroke:none"
         d="m 2635.35,1257.43 c 0,-45.59 -0.41,-86.95 -10,-132.62 -9.31,-44.3 -26.28,-85.98 -52.44,-123.51 -26.09,-37.409 -59.53,-68.081 -98.5,-91.089 -39.46,-23.289 -80.84,-36.551 -125.03,-45.461 -82.96,-16.73 -139.73,-20.508 -193.05,-9.781 -51.45,10.34 -95.05,33.992 -129.9,65.953 -51.66,47.367 -83.86,111.358 -90.9,178.238 -8.24,78.38 17.86,162.1 76.71,223.78 29.7,31.13 67,55.75 116.8,75.07 52.1,20.22 109.61,32.29 198.01,50.11 23.29,4.7 46.57,9.4 69.86,14.09 30.63,6.17 56.89,14.01 78.06,39.89 21.34,26.06 21.68,57.77 21.68,89.22 l 0.02,792.9 c 0,60.67 -27.21,77.21 -85.15,66.07 -41.43,-8.07 -930.86,-187.45 -930.86,-187.45 -50.16,-12.12 -67.8,-28.52 -67.8,-90.76 V 1010.54 c 0,-45.579 -2.35,-86.958 -11.95,-132.618 -9.31,-44.301 -26.28,-85.981 -52.45,-123.512 -26.07,-37.41 -59.52,-68.078 -98.48,-91.09 -39.47,-23.289 -80.85,-37.218 -125.05,-46.121 -82.95,-16.738 -139.723,-20.508 -193.047,-9.777 -51.442,10.328 -95.039,34.648 -129.895,66.609 -51.652,47.367 -81.746,111.36 -88.789,178.239 -8.242,78.371 15.754,162.1 74.606,223.78 29.691,31.12 66.988,55.75 116.789,75.07 52.113,20.22 109.616,32.29 198.006,50.11 23.29,4.7 46.58,9.39 69.87,14.09 30.63,6.17 56.89,14.02 78.05,39.88 21.19,25.88 23.68,56.37 23.68,87.62 0,245.99 -0.02,1339.16 -0.02,1339.16 0,18.05 1.53,30.19 2.44,36.22 4.28,28.18 15.59,52.35 35.99,69.48 16.96,14.24 38.78,24.05 66.71,30 l 0.41,0.08 1070,215.87 c 9.29,1.9 86.61,15.63 95.31,16.39 57.84,4.99 90.31,-32.98 90.31,-94.62 z m 964.41,1345.43 c -0.22,36.22 -0.64,72.43 -1.62,108.64 -2.13,78.87 -6.78,158.43 -20.79,236.42 -14.23,79.2 -37.46,152.9 -74.09,224.86 -35.98,70.68 -82.98,135.35 -139.06,191.42 -56.08,56.08 -120.77,103.09 -191.45,139.08 -71.92,36.6 -145.58,59.83 -224.74,74.05 -78.02,14.03 -157.61,18.68 -236.51,20.81 -36.21,0.98 -72.42,1.4 -108.64,1.61 -42.99,0.27 -85.99,0.25 -128.99,0.25 H 1126.13 c -43,0 -86,0.02 -128.993,-0.25 -36.223,-0.21 -72.434,-0.63 -108.641,-1.61 -78.894,-2.13 -158.484,-6.78 -236.508,-20.81 -79.152,-14.22 -152.82,-37.45 -224.734,-74.05 -70.688,-35.99 -135.371,-83 -191.457,-139.08 C 179.723,3308.13 132.723,3243.46 96.7422,3172.78 60.1094,3100.82 36.8789,3027.12 22.6484,2947.92 8.64063,2869.93 3.99219,2790.37 1.85938,2711.5 0.882813,2675.29 0.460938,2639.08 0.242188,2602.86 -0.015625,2559.87 0.00390625,2516.87 0.00390625,2473.88 V 1126.13 c 0,-43 -0.01953125,-86 0.23828175,-128.989 C 0.460938,960.922 0.882813,924.711 1.85938,888.5 3.99219,809.629 8.64063,730.07 22.6484,652.082 36.8789,572.879 60.1094,499.172 96.7422,427.219 132.723,356.539 179.723,291.871 235.797,235.801 291.883,179.719 356.566,132.711 427.254,96.7305 499.168,60.1211 572.836,36.8906 651.988,22.6719 730.012,8.64063 809.602,3.98828 888.496,1.85938 924.703,0.878906 960.914,0.460938 997.137,0.238281 1040.13,-0.0195313 1083.13,0 1126.13,0 h 1347.74 c 43,0 86,-0.0195313 128.99,0.238281 36.22,0.222657 72.43,0.640625 108.64,1.621099 78.9,2.1289 158.49,6.78125 236.51,20.81252 79.16,14.2187 152.82,37.4492 224.74,74.0586 70.68,35.9805 135.37,82.9885 191.45,139.0705 56.08,56.07 103.08,120.738 139.06,191.418 36.63,71.953 59.86,145.66 74.09,224.863 14.01,77.988 18.66,157.547 20.79,236.418 0.98,36.211 1.4,72.422 1.62,108.641 0.26,42.989 0.24,85.989 0.24,128.989 v 1347.75 c 0,42.99 0.02,85.99 -0.24,128.98" /></g></g></svg>